<?xml version="1.0" encoding="UTF-8"?>
<svg width="210mm" height="297mm" version="1.1" viewBox="0 0 744.09448819 1052.3622047" xmlns="http://www.w3.org/2000/svg">
 <g transform="matrix(1.8322 0 0 1.8322 -854.19 -334.75)">
  <rect x="513.85" y="271.12" width="310.81" height="400.12" fill="#f7d6b5"/>
  <rect x="475.93" y="242.98" width="386.67" height="451.87"/>
  <rect x="475.93" y="632.14" width="386.67" height="64.645" fill="#6f918a"/>
  <path d="m580.44 300.43c-11.186 35.73-23.819 71.863-23.979 109.76-1.7917 33.75 7.5286 68.487 28.86 95.056 16.037 21.816 38.818 37.338 55.815 58.254 6.6968 8.2001 10.34 18.834 8.4798 29.434-2.4022 18.572-19.303 29.955-34.253 38.494-22.246 12.256-45.757 22.07-67.964 34.384 81.243-0.0117 162.49-0.014 243.73-0.021-25.342-14.407-52.975-24.54-77.622-40.177-12.903-8.2959-25.526-20.923-25.228-37.413-0.97873-16.381 11.661-28.543 22.32-39.124 18.538-18.246 39.017-35.23 52.16-58.091 20.134-33.017 22.862-73.627 16.483-111.01-4.4721-29.571-14.787-57.756-23.392-86.274h-173.37c-0.67826 2.2425-1.3565 4.485-2.0348 6.7275z" fill="#f7d6b5"/>
  <path d="m735.95 315.52c-45.782 0.39488-91.565 0.0861-137.35 0.16211-13.244 40.84-25.824 84.503-17.986 127.36 5.7641 33.797 29.389 60.8 54.41 82.814 14.18 11.979 15.184 14.848 34.045 16.203 17.665 1.2687 18.514-1.3666 30.848-13.169 21.891-20.963 46.393-42.494 54.529-72.827 13.224-43.638 1.624-89.515-11.935-131.57-1.9938-3.2556-0.90151-10.995-6.5625-8.9766z" fill="#d45380"/>
  <g transform="matrix(.50022 -.22658 .22658 .50022 770.92 647.81)">
   <g transform="matrix(.71256 0 0 .71256 -392.02 -454.56)">
    <path d="m378.27-533.48c-31.878 61.013-64.684 121.57-94.799 183.48-4.6577 8.6224 0.74133 18.376 3.2109 26.809 11.145 29.918 27.013 57.727 41.387 86.146-22.798-7.5313-45.543-15.451-68.373-22.742-36.44 2.4356-73.107 2.9508-109.33 7.8223-5.7798 0.7418-3.2797 7.9603-2.5193 11.624 10.168 35.86 24.802 70.275 38.81 104.76 2.4129 6.7474 5.6365 13.172 11.261 17.832 17.956 18.573 36.442 36.623 54.842 54.754-19.712-2.2638-39.449-4.9059-59.145-6.9355-31.849 8.3406-64.006 16.366-95.742 24.605-3.6024 4.1567 1.3001 9.6847 2.9961 13.674 20.772 33.465 46.292 63.672 70.408 94.717 10.63 7.599 24.206 9.4286 36.5 13.043 24.283 6.2722 49.308 9.0261 73.343 16.188 32.67 7.9891 65.262 17.232 98.755 21.06 4.903-0.45893 0.83323-10.658 2.1641-14.994-0.0988-212.8 0.19767-425.6-0.14844-638.39-1.207 2.1816-2.4141 4.3633-3.6211 6.5449z" fill="#60a940"/>
    <path d="m378.21-531.97c-0.37851 203.5-0.0539 407-0.16211 610.5v35.23c52.948-6.2847 103.41-24.601 155.82-33.483 17.064-3.8805 34.699-7.0047 50.588-14.591 9.5766-5.7378 14.154-16.681 21.622-24.594 19.588-25.264 40.195-50.068 55.944-77.98 2.847-3.8694 0.44934-9.3244-4.2871-9.9395-26.385-5.6105-52.319-13.658-78.653-19.734-8.0808-2.1074-16.196-4.3412-24.522-2.1143-15.567 1.7617-32.092 4.2255-47.051 5.4131 20.737-20.678 42.439-40.544 61.643-62.658 16.399-39.091 33.381-78.237 44.174-119.32 0.62413-4.2511-3.3934-8.52-7.7383-7.2734-35.277-4.1775-70.908-5.3656-106.3-7.0547-22.471 7.5234-44.943 15.047-67.414 22.57 16.882-33.584 36.968-66.281 46.43-102.97 0.63826-12.509-9.019-22.142-13.121-33.277-28.12-55.89-57.461-111.15-86.801-166.4-0.056 2.5586-0.11198 5.1172-0.16797 7.6758z" fill="#3a9f0e"/>
   </g>
   <g transform="matrix(.92095 -.38967 .38967 .92095 -605.28 -139.89)" fill="#504">
    <circle transform="matrix(.91091 .4126 -.4126 .91091 0 0)" cx="479.03" cy="-333.78" r="54.938"/>
    <circle transform="matrix(.91091 .4126 -.4126 .91091 0 0)" cx="479.03" cy="-227.23" r="44.95"/>
    <circle transform="matrix(.91091 .4126 -.4126 .91091 0 0)" cx="479.03" cy="-135.67" r="38.29"/>
    <circle transform="matrix(.91091 .4126 -.4126 .91091 0 0)" cx="479.03" cy="-62.415" r="31.631"/>
    <circle transform="matrix(.91091 .4126 -.4126 .91091 0 0)" cx="389.14" cy="-272.18" r="48.279"/>
    <circle transform="matrix(.91091 .4126 -.4126 .91091 0 0)" cx="565.6" cy="-272.18" r="48.279"/>
    <circle transform="matrix(.91091 .4126 -.4126 .91091 0 0)" cx="405.78" cy="-175.62" r="38.29"/>
    <circle transform="matrix(.91091 .4126 -.4126 .91091 0 0)" cx="555.62" cy="-175.62" r="38.29"/>
    <circle transform="matrix(.91091 .4126 -.4126 .91091 0 0)" cx="417.44" cy="-97.376" r="31.631"/>
    <circle transform="matrix(.91091 .4126 -.4126 .91091 0 0)" cx="545.63" cy="-97.376" r="31.631"/>
   </g>
   <path d="m-382.91-138.76 402.5 182.31-11.712 25.857-402.5-182.31z" fill="#f7d6b5"/>
  </g>
 </g>
</svg>
